<svg version="1.1" viewBox="0.0 0.0 140.61154855643045 154.91338582677164" fill="none" stroke="none" stroke-linecap="square" stroke-miterlimit="10" xmlns:xlink="http://www.w3.org/1999/xlink" xmlns="http://www.w3.org/2000/svg"><clipPath id="p.0"><path d="m0 0l140.61154 0l0 154.91339l-140.61154 0l0 -154.91339z" clip-rule="nonzero"/></clipPath><g clip-path="url(#p.0)"><path fill="#000000" fill-opacity="0.0" d="m0 0l140.61154 0l0 154.91339l-140.61154 0z" fill-rule="evenodd"/><path fill="#1c4587" d="m68.006744 9.43116E-5c-10.378075 -1.5065663E-5 -21.17794 1.4587353 -32.3996 4.376253c-11.202038 2.8981957 -20.952326 7.1392307 -29.25086 12.723107c-2.295339 1.5457115 -3.933468 3.2363338 -4.91438 5.071865c-0.9612982 1.8355331 -1.4419438 4.1830845 -1.4419438 7.042652c0 2.4924622 0.5983553 4.5984974 1.7950729 6.3181057c1.2163311 1.7196083 2.8544602 2.5794144 4.91438 2.5794144c1.804883 3.8146973E-6 3.4920568 -0.5313339 5.061517 -1.5940094c7.5922756 -4.868984 16.116419 -8.781557 25.572435 -11.7377205c9.475628 -2.975483 19.029732 -4.4632187 28.662312 -4.4632053c14.949135 2.2888184E-5 26.514107 3.854662 34.69494 11.563917c8.200439 7.709255 12.300659 18.625862 12.300659 32.749813c0 21.021698 -5.2086563 37.821663 -15.625961 50.399887c-10.417313 12.578224 -26.180603 18.867317 -47.289875 18.867287c-4.57106 0 -8.661472 -0.17390442 -12.271236 -0.521698c1.3144264 -14.491051 3.5411034 -29.716331 6.680027 -45.675804c3.1389236 -15.959488 6.2680397 -28.692291 9.387348 -38.198425c0.72587585 -2.125351 1.0888138 -4.0188446 1.0888138 -5.6804924c0 -4.0381775 -3.6784286 -6.05727 -11.035282 -6.0572777c-4.0806046 -7.6293945E-6 -7.386284 0.59894943 -9.917046 1.796875c-2.530758 1.1786003 -4.2179317 3.2459908 -5.061516 6.2021675c-4.472969 16.036762 -8.278917 32.691822 -11.417841 49.96516c-3.1193075 17.273338 -5.1007557 31.783714 -5.9443407 43.531128c-0.25503635 4.27005 0.519887 7.3614655 2.324767 9.274292c1.8245001 1.8935089 5.139988 3.130066 9.94647 3.7097168c8.808611 1.1979523 16.70497 1.7969208 23.689077 1.796936c19.16706 1.5258789E-5 35.67585 -3.6806793 49.52636 -11.042114c13.870125 -7.36145 24.424759 -17.717712 31.66391 -31.068794c7.239151 -13.370407 10.858719 -29.011086 10.858719 -46.922035c0 -13.776165 -2.893692 -25.533249 -8.681091 -35.271255c-5.7873917 -9.738001 -14.046692 -17.128454 -24.777893 -22.171358c-10.731201 -5.042905 -23.443848 -7.5643673 -38.13794 -7.5643888z" fill-rule="evenodd"/><path stroke="#000000" stroke-width="1.0" stroke-linejoin="round" stroke-linecap="butt" d="m68.006744 9.43116E-5c-10.378075 -1.5065663E-5 -21.17794 1.4587353 -32.3996 4.376253c-11.202038 2.8981957 -20.952326 7.1392307 -29.25086 12.723107c-2.295339 1.5457115 -3.933468 3.2363338 -4.91438 5.071865c-0.9612982 1.8355331 -1.4419438 4.1830845 -1.4419438 7.042652c0 2.4924622 0.5983553 4.5984974 1.7950729 6.3181057c1.2163311 1.7196083 2.8544602 2.5794144 4.91438 2.5794144c1.804883 3.8146973E-6 3.4920568 -0.5313339 5.061517 -1.5940094c7.5922756 -4.868984 16.116419 -8.781557 25.572435 -11.7377205c9.475628 -2.975483 19.029732 -4.4632187 28.662312 -4.4632053c14.949135 2.2888184E-5 26.514107 3.854662 34.69494 11.563917c8.200439 7.709255 12.300659 18.625862 12.300659 32.749813c0 21.021698 -5.2086563 37.821663 -15.625961 50.399887c-10.417313 12.578224 -26.180603 18.867317 -47.289875 18.867287c-4.57106 0 -8.661472 -0.17390442 -12.271236 -0.521698c1.3144264 -14.491051 3.5411034 -29.716331 6.680027 -45.675804c3.1389236 -15.959488 6.2680397 -28.692291 9.387348 -38.198425c0.72587585 -2.125351 1.0888138 -4.0188446 1.0888138 -5.6804924c0 -4.0381775 -3.6784286 -6.05727 -11.035282 -6.0572777c-4.0806046 -7.6293945E-6 -7.386284 0.59894943 -9.917046 1.796875c-2.530758 1.1786003 -4.2179317 3.2459908 -5.061516 6.2021675c-4.472969 16.036762 -8.278917 32.691822 -11.417841 49.96516c-3.1193075 17.273338 -5.1007557 31.783714 -5.9443407 43.531128c-0.25503635 4.27005 0.519887 7.3614655 2.324767 9.274292c1.8245001 1.8935089 5.139988 3.130066 9.94647 3.7097168c8.808611 1.1979523 16.70497 1.7969208 23.689077 1.796936c19.16706 1.5258789E-5 35.67585 -3.6806793 49.52636 -11.042114c13.870125 -7.36145 24.424759 -17.717712 31.66391 -31.068794c7.239151 -13.370407 10.858719 -29.011086 10.858719 -46.922035c0 -13.776165 -2.893692 -25.533249 -8.681091 -35.271255c-5.7873917 -9.738001 -14.046692 -17.128454 -24.777893 -22.171358c-10.731201 -5.042905 -23.443848 -7.5643673 -38.13794 -7.5643888z" fill-rule="evenodd"/></g></svg>